<svg xmlns="http://www.w3.org/2000/svg">
    <symbol id="users" viewBox="0 0 20 20">
        <g>
            <path d="M18.9061 16.0937H17.0311V14.2187C17.0311 14.1156 16.9467 14.0312 16.8436 14.0312H15.7186C15.6155 14.0312 15.5311 14.1156 15.5311 14.2187V16.0937H13.6561C13.553 16.0937 13.4686 16.1781 13.4686 16.2812V17.4062C13.4686 17.5093 13.553 17.5937 13.6561 17.5937H15.5311V19.4687C15.5311 19.5718 15.6155 19.6562 15.7186 19.6562H16.8436C16.9467 19.6562 17.0311 19.5718 17.0311 19.4687V17.5937H18.9061C19.0092 17.5937 19.0936 17.5093 19.0936 17.4062V16.2812C19.0936 16.1781 19.0092 16.0937 18.9061 16.0937ZM6.75376 9.68122C6.73266 9.47731 6.72094 9.27106 6.72094 9.06247C6.72094 8.68981 6.7561 8.32653 6.82173 7.97263C6.83813 7.88825 6.7936 7.80153 6.71626 7.76638C6.39751 7.62341 6.10454 7.42653 5.85141 7.1781C5.55315 6.88889 5.31844 6.54069 5.16227 6.15571C5.0061 5.77073 4.93189 5.35742 4.94438 4.94216C4.96548 4.18981 5.26782 3.47497 5.79516 2.93591C6.37407 2.34294 7.15219 2.0195 7.97954 2.02888C8.72719 2.03591 9.44907 2.32419 9.99516 2.83513C10.1803 3.00856 10.3397 3.20075 10.4733 3.407C10.5202 3.47966 10.6116 3.51013 10.6913 3.482C11.1038 3.33903 11.5397 3.23825 11.9874 3.19138C12.1186 3.17731 12.1936 3.03669 12.135 2.9195C11.3733 1.41247 9.81704 0.371845 8.01704 0.34372C5.42016 0.303876 3.25454 2.43435 3.25454 5.03122C3.25454 6.5031 3.93188 7.8156 4.9936 8.67575C4.24829 9.02028 3.56157 9.49606 2.96626 10.0914C1.68188 11.3734 0.95532 13.0656 0.908445 14.8726C0.907819 14.8976 0.912207 14.9225 0.921349 14.9458C0.930492 14.9691 0.944204 14.9903 0.961677 15.0082C0.979151 15.0262 1.00003 15.0404 1.02309 15.0501C1.04615 15.0598 1.07092 15.0648 1.09595 15.0648H2.41079C2.51157 15.0648 2.59594 14.9851 2.59829 14.8843C2.64282 13.525 3.1936 12.2523 4.16157 11.2867C4.85063 10.5976 5.69438 10.1195 6.61548 9.88747C6.70454 9.86169 6.76548 9.77497 6.75376 9.68122ZM17.3124 9.06247C17.3124 6.49841 15.2522 4.41481 12.6975 4.37497C10.1006 4.33513 7.93735 6.4656 7.93735 9.06247C7.93735 10.5343 8.61704 11.8468 9.67641 12.707C8.92338 13.0561 8.23787 13.5353 7.65141 14.1226C6.36704 15.4047 5.64048 17.0968 5.5936 18.9015C5.59298 18.9265 5.59736 18.9514 5.60651 18.9747C5.61565 18.998 5.62936 19.0192 5.64683 19.0372C5.66431 19.0551 5.68519 19.0693 5.70825 19.079C5.73131 19.0887 5.75608 19.0937 5.7811 19.0937H7.0936C7.19438 19.0937 7.27876 19.014 7.2811 18.9132C7.32563 17.5539 7.87641 16.2812 8.84438 15.3156C9.85454 14.3054 11.1952 13.75 12.6249 13.75C15.2124 13.75 17.3124 11.6523 17.3124 9.06247ZM14.7459 11.1836C14.1788 11.7508 13.4264 12.0625 12.6249 12.0625C11.8233 12.0625 11.0709 11.7508 10.5038 11.1836C10.2207 10.902 9.99709 10.5665 9.84612 10.1969C9.69514 9.82733 9.6199 9.4312 9.62485 9.032C9.63188 8.26325 9.93891 7.52028 10.4756 6.9695C11.0381 6.39294 11.7905 6.07185 12.5944 6.06247C13.3889 6.05544 14.16 6.36481 14.7272 6.92028C15.3084 7.48981 15.6272 8.25153 15.6272 9.06247C15.6249 9.86403 15.3131 10.6164 14.7459 11.1836Z"/>
        </g>
    </symbol>
    <symbol id="messages" viewBox="0 0 22 22">
        <g>
            <path d="M9.87519 11C9.87519 11.2984 9.99372 11.5845 10.2047 11.7955C10.4157 12.0065 10.7018 12.125 11.0002 12.125C11.2986 12.125 11.5847 12.0065 11.7957 11.7955C12.0067 11.5845 12.1252 11.2984 12.1252 11C12.1252 10.7016 12.0067 10.4155 11.7957 10.2045C11.5847 9.99353 11.2986 9.875 11.0002 9.875C10.7018 9.875 10.4157 9.99353 10.2047 10.2045C9.99372 10.4155 9.87519 10.7016 9.87519 11ZM14.5627 11C14.5627 11.2984 14.6812 11.5845 14.8922 11.7955C15.1032 12.0065 15.3893 12.125 15.6877 12.125C15.9861 12.125 16.2722 12.0065 16.4832 11.7955C16.6942 11.5845 16.8127 11.2984 16.8127 11C16.8127 10.7016 16.6942 10.4155 16.4832 10.2045C16.2722 9.99353 15.9861 9.875 15.6877 9.875C15.3893 9.875 15.1032 9.99353 14.8922 10.2045C14.6812 10.4155 14.5627 10.7016 14.5627 11ZM5.18769 11C5.18769 11.2984 5.30622 11.5845 5.5172 11.7955C5.72818 12.0065 6.01433 12.125 6.31269 12.125C6.61106 12.125 6.89721 12.0065 7.10819 11.7955C7.31917 11.5845 7.43769 11.2984 7.43769 11C7.43769 10.7016 7.31917 10.4155 7.10819 10.2045C6.89721 9.99353 6.61106 9.875 6.31269 9.875C6.01433 9.875 5.72818 9.99353 5.5172 10.2045C5.30622 10.4155 5.18769 10.7016 5.18769 11ZM20.6846 6.93125C20.1549 5.67266 19.3955 4.54297 18.4275 3.57266C17.4663 2.60796 16.3253 1.84114 15.0689 1.31563C13.7799 0.774219 12.4111 0.5 11.0002 0.5H10.9533C9.53301 0.507031 8.15723 0.788281 6.86348 1.34141C5.61791 1.87232 4.48753 2.64049 3.53535 3.60312C2.57676 4.57109 1.82441 5.69609 1.3041 6.95C0.765038 8.24844 0.493163 9.62891 0.500194 11.0492C0.508147 12.6769 0.893222 14.2806 1.62519 15.7344V19.2969C1.62519 19.5828 1.73878 19.857 1.94097 20.0592C2.14316 20.2614 2.41738 20.375 2.70332 20.375H6.26816C7.72198 21.107 9.32565 21.492 10.9533 21.5H11.0025C12.4064 21.5 13.7682 21.2281 15.0502 20.6961C16.3002 20.1768 17.437 19.419 18.3971 18.4648C19.365 17.5063 20.1268 16.3859 20.6588 15.1367C21.2119 13.843 21.4932 12.4672 21.5002 11.0469C21.5072 9.61953 21.2307 8.23438 20.6846 6.93125ZM17.1432 17.1969C15.5002 18.8234 13.3205 19.7188 11.0002 19.7188H10.9604C9.54707 19.7117 8.14316 19.3602 6.90332 18.6992L6.70644 18.5938H3.40644V15.2938L3.30098 15.0969C2.64004 13.857 2.28848 12.4531 2.28144 11.0398C2.27207 8.70312 3.16504 6.50937 4.80332 4.85703C6.43926 3.20469 8.62598 2.29062 10.9627 2.28125H11.0025C12.1744 2.28125 13.3111 2.50859 14.3822 2.95859C15.4275 3.39687 16.365 4.02734 17.1713 4.83359C17.9752 5.6375 18.608 6.57734 19.0463 7.62266C19.501 8.70547 19.7283 9.85391 19.7236 11.0398C19.7096 13.3742 18.7932 15.5609 17.1432 17.1969Z"/>

        </g>
    </symbol>
    <symbol id="bell" viewBox="0 0 16 22">
        <g>
            <path d="M15.125 17H14.5625V9.03125C14.5625 5.72422 12.118 2.99141 8.9375 2.53672V1.625C8.9375 1.10703 8.51797 0.6875 8 0.6875C7.48203 0.6875 7.0625 1.10703 7.0625 1.625V2.53672C3.88203 2.99141 1.4375 5.72422 1.4375 9.03125V17H0.875C0.460156 17 0.125 17.3352 0.125 17.75V18.5C0.125 18.6031 0.209375 18.6875 0.3125 18.6875H5.375C5.375 20.1359 6.55156 21.3125 8 21.3125C9.44844 21.3125 10.625 20.1359 10.625 18.6875H15.6875C15.7906 18.6875 15.875 18.6031 15.875 18.5V17.75C15.875 17.3352 15.5398 17 15.125 17ZM8 19.8125C7.37891 19.8125 6.875 19.3086 6.875 18.6875H9.125C9.125 19.3086 8.62109 19.8125 8 19.8125ZM3.125 17V9.03125C3.125 7.72813 3.63125 6.50469 4.55234 5.58359C5.47344 4.6625 6.69688 4.15625 8 4.15625C9.30313 4.15625 10.5266 4.6625 11.4477 5.58359C12.3687 6.50469 12.875 7.72813 12.875 9.03125V17H3.125Z"/>

        </g>
    </symbol>
    <symbol id="info" viewBox="0 0 44 24">
        <g>
            <path d="M12 1.5C6.20156 1.5 1.5 6.20156 1.5 12C1.5 17.7984 6.20156 22.5 12 22.5C17.7984 22.5 22.5 17.7984 22.5 12C22.5 6.20156 17.7984 1.5 12 1.5ZM12 20.7188C7.18594 20.7188 3.28125 16.8141 3.28125 12C3.28125 7.18594 7.18594 3.28125 12 3.28125C16.8141 3.28125 20.7188 7.18594 20.7188 12C20.7188 16.8141 16.8141 20.7188 12 20.7188Z"/>
            <path d="M10.875 7.875C10.875 8.17337 10.9935 8.45952 11.2045 8.6705C11.4155 8.88147 11.7016 9 12 9C12.2984 9 12.5845 8.88147 12.7955 8.6705C13.0065 8.45952 13.125 8.17337 13.125 7.875C13.125 7.57663 13.0065 7.29048 12.7955 7.0795C12.5845 6.86853 12.2984 6.75 12 6.75C11.7016 6.75 11.4155 6.86853 11.2045 7.0795C10.9935 7.29048 10.875 7.57663 10.875 7.875V7.875ZM12.5625 10.5H11.4375C11.3344 10.5 11.25 10.5844 11.25 10.6875V17.0625C11.25 17.1656 11.3344 17.25 11.4375 17.25H12.5625C12.6656 17.25 12.75 17.1656 12.75 17.0625V10.6875C12.75 10.5844 12.6656 10.5 12.5625 10.5Z"/>
            <path d="M41.1308 8.6875H30.8683C30.5605 8.6875 30.3886 9.0125 30.5792 9.23437L35.7105 15.1844C35.8574 15.3547 36.1402 15.3547 36.2886 15.1844L41.4199 9.23437C41.6105 9.0125 41.4386 8.6875 41.1308 8.6875Z"/>

        </g>
    </symbol>
    <symbol id="news" viewBox="0 0 24 24">
        <g>
            <path d="M20.625 2.625H3.375C2.96016 2.625 2.625 2.96016 2.625 3.375V20.625C2.625 21.0398 2.96016 21.375 3.375 21.375H20.625C21.0398 21.375 21.375 21.0398 21.375 20.625V3.375C21.375 2.96016 21.0398 2.625 20.625 2.625ZM19.6875 19.6875H4.3125V4.3125H19.6875V19.6875Z"/>
            <path d="M7.96875 15.375C7.96875 15.6236 8.06752 15.8621 8.24334 16.0379C8.41915 16.2137 8.65761 16.3125 8.90625 16.3125C9.15489 16.3125 9.39335 16.2137 9.56916 16.0379C9.74498 15.8621 9.84375 15.6236 9.84375 15.375C9.84375 15.1264 9.74498 14.8879 9.56916 14.7121C9.39335 14.5363 9.15489 14.4375 8.90625 14.4375C8.65761 14.4375 8.41915 14.5363 8.24334 14.7121C8.06752 14.8879 7.96875 15.1264 7.96875 15.375V15.375ZM7.96875 12C7.96875 12.2486 8.06752 12.4871 8.24334 12.6629C8.41915 12.8387 8.65761 12.9375 8.90625 12.9375C9.15489 12.9375 9.39335 12.8387 9.56916 12.6629C9.74498 12.4871 9.84375 12.2486 9.84375 12C9.84375 11.7514 9.74498 11.5129 9.56916 11.3371C9.39335 11.1613 9.15489 11.0625 8.90625 11.0625C8.65761 11.0625 8.41915 11.1613 8.24334 11.3371C8.06752 11.5129 7.96875 11.7514 7.96875 12ZM7.96875 8.625C7.96875 8.87364 8.06752 9.1121 8.24334 9.28791C8.41915 9.46373 8.65761 9.5625 8.90625 9.5625C9.15489 9.5625 9.39335 9.46373 9.56916 9.28791C9.74498 9.1121 9.84375 8.87364 9.84375 8.625C9.84375 8.37636 9.74498 8.1379 9.56916 7.96209C9.39335 7.78627 9.15489 7.6875 8.90625 7.6875C8.65761 7.6875 8.41915 7.78627 8.24334 7.96209C8.06752 8.1379 7.96875 8.37636 7.96875 8.625V8.625ZM11.5312 16.125H15.8438C15.9469 16.125 16.0312 16.0406 16.0312 15.9375V14.8125C16.0312 14.7094 15.9469 14.625 15.8438 14.625H11.5312C11.4281 14.625 11.3438 14.7094 11.3438 14.8125V15.9375C11.3438 16.0406 11.4281 16.125 11.5312 16.125ZM11.5312 12.75H15.8438C15.9469 12.75 16.0312 12.6656 16.0312 12.5625V11.4375C16.0312 11.3344 15.9469 11.25 15.8438 11.25H11.5312C11.4281 11.25 11.3438 11.3344 11.3438 11.4375V12.5625C11.3438 12.6656 11.4281 12.75 11.5312 12.75ZM11.5312 9.375H15.8438C15.9469 9.375 16.0312 9.29063 16.0312 9.1875V8.0625C16.0312 7.95937 15.9469 7.875 15.8438 7.875H11.5312C11.4281 7.875 11.3438 7.95937 11.3438 8.0625V9.1875C11.3438 9.29063 11.4281 9.375 11.5312 9.375Z"/>
        </g>
    </symbol>
    <symbol id="market" viewBox="0 0 20 20">
        <g>
            <path d="M18.6723 4.37734V1.375C18.6723 0.960156 18.3371 0.625 17.9223 0.625H2.07851C1.66366 0.625 1.32851 0.960156 1.32851 1.375V4.37734C0.937099 4.40078 0.625381 4.72656 0.625381 5.125V8.21172C0.62388 8.77901 0.738747 9.34058 0.962881 9.86172C1.06366 10.1008 1.18788 10.3258 1.32851 10.5391V18.625C1.32851 19.0375 1.66366 19.375 2.07851 19.375H17.9223C18.3371 19.375 18.6723 19.0398 18.6723 18.625V10.5391C18.8151 10.3252 18.9375 10.0985 19.0379 9.86172C19.2605 9.33906 19.3754 8.78359 19.3754 8.21172V5.125C19.3754 4.72656 19.0637 4.40078 18.6723 4.37734ZM3.01601 2.3125H16.9848V4.375H3.01601V2.3125ZM11.5004 17.6898H8.50038V15.25H11.5004V17.6898ZM16.9941 17.6898H13.0004V14.5C13.0004 14.0852 12.6652 13.75 12.2504 13.75H7.75038C7.33554 13.75 7.00038 14.0852 7.00038 14.5V17.6898H3.01601V12.0133C3.08397 12.0461 3.15429 12.0789 3.22694 12.107C3.7496 12.3273 4.30507 12.4375 4.87694 12.4375C5.44882 12.4375 6.00194 12.3273 6.52694 12.107C6.85038 11.9711 7.15507 11.7977 7.43397 11.5891C7.43866 11.5867 7.44335 11.5867 7.44804 11.5891C7.72781 11.7985 8.03248 11.9725 8.35507 12.107C8.87772 12.3273 9.43319 12.4375 10.0051 12.4375C10.5769 12.4375 11.1301 12.3273 11.6551 12.107C11.9785 11.9711 12.2832 11.7977 12.5621 11.5891C12.5668 11.5867 12.5715 11.5867 12.5762 11.5891C12.8559 11.7985 13.1606 11.9725 13.4832 12.107C14.0058 12.3273 14.5613 12.4375 15.1332 12.4375C15.7051 12.4375 16.2582 12.3273 16.7832 12.107C16.8535 12.0766 16.9238 12.0461 16.9941 12.0133V17.6898ZM17.6879 8.21172C17.6879 9.61328 16.5394 10.75 15.1262 10.75C14.1699 10.75 13.3355 10.232 12.8949 9.46328C12.8269 9.34609 12.7051 9.27344 12.5691 9.27344H12.5551C12.4215 9.27344 12.2973 9.34609 12.2293 9.46328C12.0044 9.85543 11.6798 10.1811 11.2883 10.4071C10.8968 10.6331 10.4524 10.7514 10.0004 10.75C9.04647 10.75 8.21444 10.2344 7.77382 9.46797C7.70351 9.34844 7.57694 9.27344 7.43866 9.27344C7.30038 9.27344 7.17147 9.34844 7.10351 9.46797C6.87734 9.85862 6.55224 10.1828 6.16096 10.4079C5.76967 10.6329 5.326 10.7509 4.8746 10.75C3.46132 10.75 2.31288 9.61328 2.31288 8.21172V6.07422C2.31288 6.06719 2.31757 6.0625 2.3246 6.0625H17.6762C17.6832 6.0625 17.6879 6.06719 17.6879 6.07422V8.21172Z"/>
        </g>
    </symbol>
    <symbol id="cup" viewBox="0 0 19 19">
        <g>
            <path d="M18.3438 1.75H16.1875V0.8125C16.1875 0.709375 16.1031 0.625 16 0.625H4C3.89687 0.625 3.8125 0.709375 3.8125 0.8125V1.75H1.65625C1.38275 1.75 1.12044 1.85865 0.927046 2.05205C0.733649 2.24544 0.625 2.50775 0.625 2.78125V6.25C0.625 8.16484 2.03125 9.75625 3.86406 10.0469C4.22734 12.7703 6.41406 14.9148 9.15625 15.2148V17.6805H4.5625C4.14766 17.6805 3.8125 18.0156 3.8125 18.4305V19.1875C3.8125 19.2906 3.89687 19.375 4 19.375H16C16.1031 19.375 16.1875 19.2906 16.1875 19.1875V18.4305C16.1875 18.0156 15.8523 17.6805 15.4375 17.6805H10.8438V15.2148C13.5859 14.9148 15.7727 12.7703 16.1359 10.0469C17.9687 9.75625 19.375 8.16484 19.375 6.25V2.78125C19.375 2.50775 19.2664 2.24544 19.073 2.05205C18.8796 1.85865 18.6173 1.75 18.3438 1.75ZM3.8125 8.30313C3.37714 8.16406 2.99723 7.89025 2.72762 7.52122C2.45801 7.15219 2.31264 6.70703 2.3125 6.25V3.4375H3.8125V8.30313ZM14.5 9.25C14.5 10.4008 14.0523 11.4859 13.2367 12.2992C12.4211 13.1148 11.3383 13.5625 10.1875 13.5625H9.8125C8.66172 13.5625 7.57656 13.1148 6.76328 12.2992C5.94766 11.4836 5.5 10.4008 5.5 9.25V2.3125H14.5V9.25ZM17.6875 6.25C17.6875 7.21094 17.057 8.02656 16.1875 8.30313V3.4375H17.6875V6.25Z"/>
        </g>
    </symbol>
    <symbol id="flags" viewBox="0 0 19 19">
        <g>
            <path d="M18.625 5.14844H12.625V2.5C12.625 2.08516 12.2898 1.75 11.875 1.75H2.3125V0.8125C2.3125 0.709375 2.22812 0.625 2.125 0.625H0.8125C0.709375 0.625 0.625 0.709375 0.625 0.8125V19.1875C0.625 19.2906 0.709375 19.375 0.8125 19.375H2.125C2.22812 19.375 2.3125 19.2906 2.3125 19.1875V13H8.125V15.6484C8.125 16.0633 8.46016 16.3984 8.875 16.3984H18.625C19.0398 16.3984 19.375 16.0633 19.375 15.6484V5.89844C19.375 5.48359 19.0398 5.14844 18.625 5.14844ZM2.3125 11.3125V3.4375H10.9375V11.3125H2.3125ZM17.6875 14.7109H9.8125V13H12.4375C12.5406 13 12.625 12.9156 12.625 12.8125V6.83594H17.6875V14.7109Z"/>
        </g>
    </symbol>
    <symbol id="headphones" viewBox="0 0 18 18">
        <g>
            <path d="M9 0C4.02891 0 0 4.02891 0 9V17.4375C0 17.7492 0.250781 18 0.5625 18H4.875C5.70234 18 6.375 17.3273 6.375 16.5V11.625C6.375 10.7977 5.70234 10.125 4.875 10.125H1.6875V9C1.6875 4.96172 4.96172 1.6875 9 1.6875C13.0383 1.6875 16.3125 4.96172 16.3125 9V10.125H13.125C12.2977 10.125 11.625 10.7977 11.625 11.625V16.5C11.625 17.3273 12.2977 18 13.125 18H17.4375C17.7492 18 18 17.7492 18 17.4375V9C18 4.02891 13.9711 0 9 0ZM4.6875 11.8125V16.3125H1.6875V11.8125H4.6875ZM16.3125 16.3125H13.3125V11.8125H16.3125V16.3125Z"/>
        </g>
    </symbol>
    <symbol id="house" viewBox="0 0 22 22">
        <g>
            <path d="M21.2883 10.9531C21.2883 10.9508 21.286 10.9508 21.286 10.9484L21.2438 10.8992C21.2414 10.8969 21.2391 10.8922 21.2344 10.8898C21.218 10.8711 21.1993 10.8523 21.1828 10.8336L12.1266 1.78436L11.5196 1.17733C11.3813 1.03993 11.1942 0.962818 10.9993 0.962818C10.8043 0.962818 10.6173 1.03993 10.4789 1.17733L0.815662 10.8359C0.641088 11.0096 0.512251 11.2238 0.440662 11.4594L0.426599 11.5086L0.419568 11.5344L0.412537 11.5625C0.407849 11.5789 0.405505 11.5953 0.403162 11.6117C0.403162 11.614 0.403162 11.6187 0.400818 11.6211C0.386755 11.6914 0.379724 11.7617 0.37738 11.8344V11.9117C0.37738 11.9234 0.37738 11.9351 0.379724 11.9469C0.379724 11.9586 0.379724 11.968 0.382068 11.9797C0.382068 11.9914 0.384412 12.0031 0.384412 12.0148C0.384412 12.0289 0.386755 12.043 0.389099 12.057C0.389099 12.064 0.391443 12.0711 0.391443 12.0781L0.398474 12.1367V12.139C0.518005 12.8539 1.15316 13.393 1.89847 13.393H2.89457V21.0312H19.1063V13.3976H20.1235C20.325 13.3976 20.5196 13.3578 20.6977 13.2828C20.8758 13.2078 21.0422 13.0976 21.1852 12.957C21.3248 12.8178 21.4355 12.6523 21.5107 12.4701C21.5859 12.2878 21.6243 12.0925 21.6235 11.8953C21.6235 11.5508 21.5063 11.2203 21.2883 10.9531V10.9531ZM12.3118 19.3437H9.68676V14.5625H12.3118V19.3437ZM17.4188 11.7101V19.3437H13.8118V14C13.8118 13.482 13.3922 13.0625 12.8743 13.0625H9.12426C8.60629 13.0625 8.18676 13.482 8.18676 14V19.3437H4.57972V11.7101H2.32972L11.0016 3.0453L11.543 3.58671L19.6711 11.7101H17.4188Z" />
        </g>
    </symbol>
    <symbol id="rocket" viewBox="0 0 18 22">
        <g>
            <path d="M17.25 16.25C17.25 13.6344 15.7172 11.375 13.5 10.3227V6.43672C13.5 6.08281 13.3758 5.74063 13.1461 5.47109L9.57422 1.23594C9.42422 1.05781 9.21094 0.96875 9 0.96875C8.78906 0.96875 8.57578 1.05781 8.42578 1.23594L4.85391 5.47109C4.62578 5.74118 4.50043 6.08318 4.5 6.43672V10.3227C2.28281 11.375 0.75 13.6344 0.75 16.25H4.41797C4.36406 16.4187 4.33594 16.6016 4.33594 16.8078C4.33594 17.3258 4.51406 17.832 4.8375 18.2328C5.1015 18.5606 5.45115 18.8088 5.84766 18.95C6.38906 20.2156 7.61953 21.0312 9 21.0312C9.68203 21.0312 10.343 20.8297 10.9078 20.45C11.4609 20.0797 11.8898 19.5617 12.15 18.95C12.5463 18.8097 12.896 18.5623 13.1602 18.2352C13.484 17.8307 13.6609 17.3283 13.6617 16.8102C13.6617 16.6133 13.6359 16.4258 13.5891 16.2523L17.25 16.25ZM4.59375 14.6562H2.60625C2.73516 14.2742 2.91328 13.9063 3.13359 13.5641C3.51563 12.9734 4.0125 12.4742 4.59375 12.0945V14.6562ZM6.09375 10.3227V6.47187L9 3.02656L11.9062 6.47187V14.6562H6.09375V10.3227ZM11.7211 17.3797C11.5992 17.45 11.4586 17.4781 11.3203 17.4594L10.8633 17.4031L10.7977 17.8578C10.6711 18.7461 9.89766 19.4164 9 19.4164C8.10234 19.4164 7.32891 18.7461 7.20234 17.8578L7.13672 17.4008L6.67969 17.4594C6.54074 17.4759 6.40017 17.4472 6.27891 17.3773C6.075 17.2602 5.94844 17.0422 5.94844 16.8055C5.94844 16.557 6.08672 16.3508 6.29062 16.2477H11.7117C11.918 16.3531 12.0539 16.5594 12.0539 16.8055C12.0516 17.0445 11.925 17.2648 11.7211 17.3797ZM13.4062 14.6562V12.0945C13.991 12.4761 14.4886 12.9769 14.8664 13.5641C15.0867 13.9063 15.2648 14.2742 15.3937 14.6562H13.4062Z"/>
        </g>

    </symbol>
    <symbol id="photo" viewBox="0 0 21 17">
        <g>
            <path d="M20.75 0.75H1.25C0.835156 0.75 0.5 1.08516 0.5 1.5V16.5C0.5 16.9148 0.835156 17.25 1.25 17.25H20.75C21.1648 17.25 21.5 16.9148 21.5 16.5V1.5C21.5 1.08516 21.1648 0.75 20.75 0.75ZM19.8125 15.5625H2.1875V14.6273L5.43359 10.7766L8.95156 14.9484L14.4242 8.46094L19.8125 14.85V15.5625ZM19.8125 12.5203L14.5672 6.3C14.4922 6.21094 14.3562 6.21094 14.2812 6.3L8.95156 12.6188L5.57656 8.61797C5.50156 8.52891 5.36562 8.52891 5.29062 8.61797L2.1875 12.2977V2.4375H19.8125V12.5203Z" />
            <path d="M5.46875 5.625C5.46875 5.79905 5.53789 5.96597 5.66096 6.08904C5.78403 6.21211 5.95095 6.28125 6.125 6.28125C6.29905 6.28125 6.46597 6.21211 6.58904 6.08904C6.71211 5.96597 6.78125 5.79905 6.78125 5.625C6.78125 5.45095 6.71211 5.28403 6.58904 5.16096C6.46597 5.03789 6.29905 4.96875 6.125 4.96875C5.95095 4.96875 5.78403 5.03789 5.66096 5.16096C5.53789 5.28403 5.46875 5.45095 5.46875 5.625Z"/>
            <path d="M6.125 7.6875C6.39585 7.6875 6.66405 7.63415 6.91428 7.5305C7.16452 7.42685 7.39189 7.27493 7.58341 7.08341C7.77493 6.89189 7.92685 6.66452 8.0305 6.41428C8.13415 6.16405 8.1875 5.89585 8.1875 5.625C8.1875 5.35415 8.13415 5.08595 8.0305 4.83572C7.92685 4.58548 7.77493 4.35811 7.58341 4.16659C7.39189 3.97507 7.16452 3.82315 6.91428 3.7195C6.66405 3.61585 6.39585 3.5625 6.125 3.5625C5.57799 3.5625 5.05339 3.7798 4.66659 4.16659C4.2798 4.55339 4.0625 5.07799 4.0625 5.625C4.0625 6.17201 4.2798 6.69661 4.66659 7.08341C5.05339 7.4702 5.57799 7.6875 6.125 7.6875ZM6.125 4.96875C6.48828 4.96875 6.78125 5.26172 6.78125 5.625C6.78125 5.98828 6.48828 6.28125 6.125 6.28125C5.76172 6.28125 5.46875 5.98828 5.46875 5.625C5.46875 5.26172 5.76172 4.96875 6.125 4.96875Z"/>
        </g>
    </symbol>
    <symbol id="add-friend" viewBox="0 0 18 20">
        <g>
            <path d="M12.8976 13.0563C13.4648 12.7516 14.114 12.5781 14.8054 12.5781H14.8077C14.8781 12.5781 14.9109 12.4938 14.8593 12.4469C14.1403 11.8016 13.3189 11.2804 12.4288 10.9047C12.4195 10.9 12.4101 10.8977 12.4007 10.893C13.8562 9.83594 14.8031 8.11797 14.8031 6.17969C14.8031 2.96875 12.2062 0.367188 9.00228 0.367188C5.79837 0.367188 3.20384 2.96875 3.20384 6.17969C3.20384 8.11797 4.15072 9.83594 5.60853 10.893C5.59915 10.8977 5.58978 10.9 5.58041 10.9047C4.53275 11.3477 3.59291 11.9828 2.78431 12.7938C1.98039 13.5962 1.34036 14.5475 0.899936 15.5945C0.466608 16.6198 0.232745 17.7184 0.210874 18.8312C0.210248 18.8563 0.214636 18.8812 0.223778 18.9044C0.232921 18.9277 0.246633 18.949 0.264106 18.9669C0.28158 18.9848 0.302462 18.999 0.325521 19.0087C0.348581 19.0184 0.373352 19.0234 0.398374 19.0234H1.80228C1.90306 19.0234 1.98744 18.9414 1.98978 18.8406C2.03666 17.0312 2.76087 15.3367 4.04291 14.0523C5.36712 12.7234 7.12962 11.9922 9.00462 11.9922C10.3335 11.9922 11.6085 12.3602 12.7077 13.0492C12.736 13.067 12.7684 13.077 12.8017 13.0782C12.8351 13.0794 12.8681 13.0719 12.8976 13.0563ZM9.00462 10.2109C7.93119 10.2109 6.92103 9.79141 6.15931 9.02969C5.78453 8.65588 5.48742 8.21161 5.28509 7.72248C5.08276 7.23335 4.97921 6.70901 4.98041 6.17969C4.98041 5.10391 5.39994 4.09141 6.15931 3.32969C6.91869 2.56797 7.92884 2.14844 9.00462 2.14844C10.0804 2.14844 11.0882 2.56797 11.8499 3.32969C12.2247 3.70349 12.5218 4.14776 12.7242 4.63689C12.9265 5.12603 13.03 5.65036 13.0288 6.17969C13.0288 7.25547 12.6093 8.26797 11.8499 9.02969C11.0882 9.79141 10.0781 10.2109 9.00462 10.2109ZM17.6249 15.7891H15.6562V13.8203C15.6562 13.7172 15.5718 13.6328 15.4687 13.6328H14.1562C14.0531 13.6328 13.9687 13.7172 13.9687 13.8203V15.7891H11.9999C11.8968 15.7891 11.8124 15.8734 11.8124 15.9766V17.2891C11.8124 17.3922 11.8968 17.4766 11.9999 17.4766H13.9687V19.4453C13.9687 19.5484 14.0531 19.6328 14.1562 19.6328H15.4687C15.5718 19.6328 15.6562 19.5484 15.6562 19.4453V17.4766H17.6249C17.7281 17.4766 17.8124 17.3922 17.8124 17.2891V15.9766C17.8124 15.8734 17.7281 15.7891 17.6249 15.7891Z"/>
        </g>
    </symbol>
    <symbol id="smile" viewBox="0 0 22 22">
        <g>
            <path d="M11 0.5C5.20156 0.5 0.5 5.20156 0.5 11C0.5 16.7984 5.20156 21.5 11 21.5C16.7984 21.5 21.5 16.7984 21.5 11C21.5 5.20156 16.7984 0.5 11 0.5ZM11 19.7188C6.18594 19.7188 2.28125 15.8141 2.28125 11C2.28125 6.18594 6.18594 2.28125 11 2.28125C15.8141 2.28125 19.7188 6.18594 19.7188 11C19.7188 15.8141 15.8141 19.7188 11 19.7188Z"/>
            <path d="M5.75 8.86719C5.75 9.16556 5.86853 9.4517 6.0795 9.66268C6.29048 9.87366 6.57663 9.99219 6.875 9.99219C7.17337 9.99219 7.45952 9.87366 7.6705 9.66268C7.88147 9.4517 8 9.16556 8 8.86719C8 8.56882 7.88147 8.28267 7.6705 8.07169C7.45952 7.86071 7.17337 7.74219 6.875 7.74219C6.57663 7.74219 6.29048 7.86071 6.0795 8.07169C5.86853 8.28267 5.75 8.56882 5.75 8.86719ZM14.5625 11.4922H13.4352C13.3367 11.4922 13.2523 11.5672 13.2453 11.6656C13.1586 12.8258 12.1836 13.7422 11 13.7422C9.81641 13.7422 8.84375 12.8258 8.75469 11.6656C8.74766 11.5672 8.66328 11.4922 8.56484 11.4922H7.4375C7.41207 11.4922 7.3869 11.4973 7.36351 11.5073C7.34013 11.5173 7.31903 11.532 7.30149 11.5504C7.28395 11.5688 7.27034 11.5906 7.26149 11.6144C7.25264 11.6383 7.24873 11.6637 7.25 11.6891C7.35312 13.6648 8.99609 15.2422 11 15.2422C13.0039 15.2422 14.6469 13.6648 14.75 11.6891C14.7513 11.6637 14.7474 11.6383 14.7385 11.6144C14.7297 11.5906 14.716 11.5688 14.6985 11.5504C14.681 11.532 14.6599 11.5173 14.6365 11.5073C14.6131 11.4973 14.5879 11.4922 14.5625 11.4922ZM14 8.86719C14 9.16556 14.1185 9.4517 14.3295 9.66268C14.5405 9.87366 14.8266 9.99219 15.125 9.99219C15.4234 9.99219 15.7095 9.87366 15.9205 9.66268C16.1315 9.4517 16.25 9.16556 16.25 8.86719C16.25 8.56882 16.1315 8.28267 15.9205 8.07169C15.7095 7.86071 15.4234 7.74219 15.125 7.74219C14.8266 7.74219 14.5405 7.86071 14.3295 8.07169C14.1185 8.28267 14 8.56882 14 8.86719Z"/>
        </g>
    </symbol>
    <symbol id="gear" viewBox="0 0 12 14">
        <g>
            <path d="M11.6438 8.55474L10.7483 7.78911C10.7907 7.52934 10.8126 7.26411 10.8126 6.99888C10.8126 6.73364 10.7907 6.46841 10.7483 6.20864L11.6438 5.44302C11.7114 5.38519 11.7597 5.30818 11.7824 5.22221C11.8051 5.13625 11.8011 5.04541 11.771 4.96177L11.7587 4.92622C11.5121 4.23719 11.143 3.59846 10.669 3.04087L10.6444 3.01216C10.5869 2.94455 10.5103 2.89595 10.4246 2.87277C10.339 2.84958 10.2483 2.8529 10.1645 2.88227L9.053 3.27739C8.64285 2.94106 8.18484 2.67583 7.68992 2.48989L7.47527 1.32778C7.45907 1.24034 7.41666 1.15989 7.35365 1.09713C7.29065 1.03437 7.21004 0.992269 7.12253 0.976414L7.08562 0.969579C6.37332 0.841063 5.6241 0.841063 4.91179 0.969579L4.87488 0.976414C4.78737 0.992269 4.70676 1.03437 4.64376 1.09713C4.58076 1.15989 4.53834 1.24034 4.52214 1.32778L4.30613 2.49536C3.81516 2.68134 3.35794 2.94643 2.95261 3.28013L1.83289 2.88227C1.74917 2.85266 1.65842 2.84923 1.5727 2.87243C1.48699 2.89563 1.41036 2.94436 1.353 3.01216L1.32839 3.04087C0.855001 3.59885 0.485901 4.23748 0.238746 4.92622L0.226442 4.96177C0.164918 5.13266 0.215504 5.32407 0.35359 5.44302L1.26004 6.21684C1.21765 6.47388 1.19714 6.73638 1.19714 6.99751C1.19714 7.26001 1.21765 7.52251 1.26004 7.77817L0.35359 8.552C0.286045 8.60982 0.237702 8.68684 0.21499 8.7728C0.192278 8.85877 0.196272 8.94961 0.226442 9.03325L0.238746 9.0688C0.486207 9.75786 0.852614 10.3936 1.32839 10.9542L1.353 10.9829C1.4105 11.0505 1.48713 11.0991 1.5728 11.1222C1.65846 11.1454 1.74914 11.1421 1.83289 11.1127L2.95261 10.7149C3.36004 11.0499 3.81531 11.3151 4.30613 11.4997L4.52214 12.6672C4.53834 12.7547 4.58076 12.8351 4.64376 12.8979C4.70676 12.9606 4.78737 13.0027 4.87488 13.0186L4.91179 13.0254C5.63064 13.1546 6.36677 13.1546 7.08562 13.0254L7.12253 13.0186C7.21004 13.0027 7.29065 12.9606 7.35365 12.8979C7.41666 12.8351 7.45907 12.7547 7.47527 12.6672L7.68992 11.5051C8.18464 11.3197 8.64523 11.0536 9.053 10.7176L10.1645 11.1127C10.2482 11.1424 10.339 11.1458 10.4247 11.1226C10.5104 11.0994 10.5871 11.0507 10.6444 10.9829L10.669 10.9542C11.1448 10.3922 11.5112 9.75786 11.7587 9.0688L11.771 9.03325C11.8325 8.86509 11.7819 8.67368 11.6438 8.55474V8.55474ZM9.77761 6.36997C9.81179 6.57641 9.82957 6.78833 9.82957 7.00024C9.82957 7.21216 9.81179 7.42407 9.77761 7.63052L9.68738 8.17876L10.7087 9.05239C10.5538 9.40908 10.3584 9.74672 10.1262 10.0586L8.8575 9.60884L8.4282 9.96157C8.10144 10.2295 7.73777 10.4401 7.34402 10.5877L6.82312 10.7833L6.57839 12.1094C6.19226 12.1532 5.80242 12.1532 5.41628 12.1094L5.17156 10.7805L4.65476 10.5823C4.26511 10.4346 3.90281 10.2241 3.57879 9.95747L3.14949 9.60337L1.87254 10.0573C1.64011 9.74419 1.44597 9.40649 1.29011 9.05102L2.32234 8.16919L2.23347 7.62231C2.20066 7.4186 2.18289 7.20806 2.18289 7.00024C2.18289 6.79106 2.19929 6.58188 2.23347 6.37817L2.32234 5.8313L1.29011 4.94946C1.44461 4.59263 1.64011 4.2563 1.87254 3.94321L3.14949 4.39712L3.57879 4.04302C3.90281 3.77641 4.26511 3.56587 4.65476 3.41821L5.17293 3.2227L5.41765 1.8938C5.80183 1.85005 6.19421 1.85005 6.57976 1.8938L6.82449 3.21997L7.34539 3.41548C7.73777 3.56313 8.10281 3.77368 8.42957 4.04165L8.85886 4.39438L10.1276 3.94458C10.36 4.25766 10.5542 4.59536 10.71 4.95083L9.68875 5.82446L9.77761 6.36997ZM6.00007 4.45727C4.67117 4.45727 3.59382 5.53462 3.59382 6.86352C3.59382 8.19243 4.67117 9.26977 6.00007 9.26977C7.32898 9.26977 8.40632 8.19243 8.40632 6.86352C8.40632 5.53462 7.32898 4.45727 6.00007 4.45727ZM7.08289 7.94634C6.94087 8.08877 6.77209 8.20171 6.58625 8.27867C6.40042 8.35563 6.20121 8.39509 6.00007 8.39477C5.59128 8.39477 5.20711 8.23481 4.91726 7.94634C4.77483 7.80432 4.66189 7.63554 4.58493 7.44971C4.50797 7.26387 4.46851 7.06466 4.46882 6.86352C4.46882 6.45474 4.62878 6.07056 4.91726 5.78071C5.20711 5.49087 5.59128 5.33227 6.00007 5.33227C6.40886 5.33227 6.79304 5.49087 7.08289 5.78071C7.22532 5.92273 7.33826 6.09151 7.41522 6.27734C7.49218 6.46317 7.53164 6.66239 7.53132 6.86352C7.53132 7.27231 7.37136 7.65649 7.08289 7.94634Z"/>
        </g>
    </symbol>
    <symbol id="points" viewBox="0 0 16 3">
        <g>
            <path d="M0.125 1.97656C0.125 2.14892 0.158949 2.3196 0.224908 2.47884C0.290867 2.63807 0.387546 2.78276 0.509422 2.90464C0.631299 3.02652 0.775988 3.12319 0.935228 3.18915C1.09447 3.25511 1.26514 3.28906 1.4375 3.28906C1.60986 3.28906 1.78053 3.25511 1.93977 3.18915C2.09901 3.12319 2.2437 3.02652 2.36558 2.90464C2.48745 2.78276 2.58413 2.63807 2.65009 2.47884C2.71605 2.3196 2.75 2.14892 2.75 1.97656C2.75 1.8042 2.71605 1.63353 2.65009 1.47429C2.58413 1.31505 2.48745 1.17036 2.36558 1.04848C2.2437 0.926608 2.09901 0.82993 1.93977 0.763971C1.78053 0.698012 1.60986 0.664063 1.4375 0.664063C1.26514 0.664063 1.09447 0.698012 0.935228 0.763971C0.775988 0.82993 0.631299 0.926608 0.509422 1.04848C0.387546 1.17036 0.290867 1.31505 0.224908 1.47429C0.158949 1.63353 0.125 1.8042 0.125 1.97656ZM6.6875 1.97656C6.6875 2.32466 6.82578 2.6585 7.07192 2.90464C7.31806 3.15078 7.6519 3.28906 8 3.28906C8.3481 3.28906 8.68194 3.15078 8.92808 2.90464C9.17422 2.6585 9.3125 2.32466 9.3125 1.97656C9.3125 1.62847 9.17422 1.29463 8.92808 1.04848C8.68194 0.802343 8.3481 0.664062 8 0.664063C7.6519 0.664062 7.31806 0.802343 7.07192 1.04848C6.82578 1.29463 6.6875 1.62847 6.6875 1.97656ZM13.25 1.97656C13.25 2.32466 13.3883 2.6585 13.6344 2.90464C13.8806 3.15078 14.2144 3.28906 14.5625 3.28906C14.9106 3.28906 15.2444 3.15078 15.4906 2.90464C15.7367 2.6585 15.875 2.32466 15.875 1.97656C15.875 1.62847 15.7367 1.29463 15.4906 1.04848C15.2444 0.802343 14.9106 0.664062 14.5625 0.664063C14.2144 0.664062 13.8806 0.802343 13.6344 1.04848C13.3883 1.29463 13.25 1.62847 13.25 1.97656Z"/>
        </g>
    </symbol>
    <symbol id="like" viewBox="0 0 20 20">
        <g>
            <path d="M18.7633 10.5094C19.157 9.98909 19.375 9.35159 19.375 8.6883C19.375 7.63596 18.7867 6.63987 17.8398 6.0844C17.5961 5.94142 17.3185 5.86617 17.0359 5.86643H11.4156L11.5563 2.98596C11.5891 2.28987 11.343 1.62893 10.8648 1.12502C10.6302 0.876652 10.3471 0.679038 10.0331 0.544395C9.71905 0.409752 9.38074 0.34094 9.03906 0.342211C7.82031 0.342211 6.74219 1.16252 6.41875 2.33674L4.40547 9.62581H1.375C0.960156 9.62581 0.625 9.96096 0.625 10.3758V18.9071C0.625 19.3219 0.960156 19.6571 1.375 19.6571H15.468C15.6836 19.6571 15.8945 19.6149 16.0891 19.5305C17.2047 19.0547 17.9242 17.9649 17.9242 16.7555C17.9242 16.4602 17.882 16.1696 17.7977 15.8883C18.1914 15.368 18.4094 14.7305 18.4094 14.0672C18.4094 13.7719 18.3672 13.4813 18.2828 13.2C18.6766 12.6797 18.8945 12.0422 18.8945 11.3789C18.8898 11.0836 18.8477 10.7906 18.7633 10.5094ZM2.3125 17.9696V11.3133H4.21094V17.9696H2.3125ZM17.2281 9.69612L16.7148 10.1414L17.0406 10.7367C17.148 10.9328 17.2036 11.153 17.2023 11.3766C17.2023 11.7633 17.0336 12.1313 16.743 12.3844L16.2297 12.8297L16.5555 13.425C16.6628 13.6211 16.7185 13.8413 16.7172 14.0649C16.7172 14.4516 16.5484 14.8196 16.2578 15.0727L15.7445 15.518L16.0703 16.1133C16.1776 16.3094 16.2333 16.5296 16.232 16.7531C16.232 17.2781 15.9227 17.7516 15.4445 17.9672H5.71094V11.2383L8.04297 2.78909C8.1031 2.57252 8.23219 2.38147 8.41066 2.24486C8.58914 2.10825 8.80728 2.03354 9.03203 2.03205C9.21016 2.03205 9.38594 2.08362 9.52656 2.18909C9.75859 2.36252 9.88281 2.62502 9.86875 2.90393L9.64375 7.55393H17.0125C17.4297 7.8094 17.6875 8.24065 17.6875 8.6883C17.6875 9.07502 17.5188 9.44065 17.2281 9.69612Z"/>
        </g>
    </symbol>
    <symbol id="likeFull" viewBox="0 0 13 13">
        <g>
            <path d="M0 12.375V6.68752C0 6.41095 0.223437 6.18752 0.5 6.18752H1.51562V12.875H0.5C0.223437 12.875 0 12.6516 0 12.375Z"/>
            <path d="M12.5 5.56252C12.5 6.0047 12.3547 6.4297 12.0922 6.77658C12.1484 6.96408 12.1766 7.15783 12.1766 7.3547C12.1766 7.79689 12.0312 8.22189 11.7688 8.56877C11.825 8.75627 11.8531 8.95002 11.8531 9.14689C11.8531 9.58908 11.7078 10.0141 11.4453 10.361C11.5016 10.5485 11.5297 10.7422 11.5297 10.9391C11.5297 11.7453 11.05 12.4719 10.3062 12.7891C10.1766 12.8453 10.0375 12.8735 9.89219 12.8735H2.51562L2.52031 6.18595L3.86094 1.32971C4.07656 0.546893 4.79531 1.77164e-05 5.60781 1.77164e-05C5.83563 -0.00103397 6.06123 0.0447482 6.27061 0.134523C6.48 0.224297 6.6687 0.356148 6.825 0.521893C7.14531 0.85783 7.30937 1.29846 7.28594 1.76252L7.19219 3.68283H10.9406C11.129 3.68265 11.3141 3.73282 11.4766 3.82814C12.1078 4.19533 12.5 4.86095 12.5 5.56252Z"/>
        </g>
    </symbol>
    <symbol id="share" viewBox="0 0 18 20">
        <g>
            <path d="M14.625 13.5625C13.957 13.5625 13.3406 13.7969 12.8578 14.1883L8.00156 10.675C8.08288 10.2287 8.08288 9.77133 8.00156 9.325L12.8578 5.81172C13.3406 6.20312 13.957 6.4375 14.625 6.4375C16.1766 6.4375 17.4375 5.17656 17.4375 3.625C17.4375 2.07344 16.1766 0.8125 14.625 0.8125C13.0734 0.8125 11.8125 2.07344 11.8125 3.625C11.8125 3.89687 11.85 4.15703 11.9227 4.40547L7.31016 7.74531C6.62578 6.83828 5.53828 6.25 4.3125 6.25C2.24062 6.25 0.5625 7.92812 0.5625 10C0.5625 12.0719 2.24062 13.75 4.3125 13.75C5.53828 13.75 6.62578 13.1617 7.31016 12.2547L11.9227 15.5945C11.85 15.843 11.8125 16.1055 11.8125 16.375C11.8125 17.9266 13.0734 19.1875 14.625 19.1875C16.1766 19.1875 17.4375 17.9266 17.4375 16.375C17.4375 14.8234 16.1766 13.5625 14.625 13.5625ZM14.625 2.40625C15.2977 2.40625 15.8438 2.95234 15.8438 3.625C15.8438 4.29766 15.2977 4.84375 14.625 4.84375C13.9523 4.84375 13.4062 4.29766 13.4062 3.625C13.4062 2.95234 13.9523 2.40625 14.625 2.40625ZM4.3125 12.0625C3.17578 12.0625 2.25 11.1367 2.25 10C2.25 8.86328 3.17578 7.9375 4.3125 7.9375C5.44922 7.9375 6.375 8.86328 6.375 10C6.375 11.1367 5.44922 12.0625 4.3125 12.0625ZM14.625 17.5938C13.9523 17.5938 13.4062 17.0477 13.4062 16.375C13.4062 15.7023 13.9523 15.1562 14.625 15.1562C15.2977 15.1562 15.8438 15.7023 15.8438 16.375C15.8438 17.0477 15.2977 17.5938 14.625 17.5938Z"/>
        </g>
    </symbol>
    <symbol id="sendMessage" viewBox="0 0 495.003 495.003">
        <g>
            <path d="M164.711,456.687c0,2.966,1.647,5.686,4.266,7.072c2.617,1.385,5.799,1.207,8.245-0.468l55.09-37.616
		l-67.6-32.22V456.687z"/>
            <path d="M492.431,32.443c-1.513-1.395-3.466-2.125-5.44-2.125c-1.19,0-2.377,0.264-3.5,0.816L7.905,264.422
		c-4.861,2.389-7.937,7.353-7.904,12.783c0.033,5.423,3.161,10.353,8.057,12.689l125.342,59.724l250.62-205.99L164.455,364.414
		l156.145,74.4c1.918,0.919,4.012,1.376,6.084,1.376c1.768,0,3.519-0.322,5.186-0.977c3.637-1.438,6.527-4.318,7.97-7.956
		L494.436,41.257C495.66,38.188,494.862,34.679,492.431,32.443z"/>
        </g>
    </symbol>
</svg>