<svg width="29" height="13" viewBox="0 0 29 13" fill="none" xmlns="http://www.w3.org/2000/svg">
<path d="M0 6.68752V12.375C0 12.6516 0.223437 12.875 0.5 12.875H1.51562V6.18752H0.5C0.223437 6.18752 0 6.41095 0 6.68752ZM12.0922 6.77658C12.3547 6.4297 12.5 6.0047 12.5 5.56252C12.5 4.86095 12.1078 4.19533 11.4766 3.82814C11.3141 3.73282 11.129 3.68265 10.9406 3.68283H7.19219L7.28594 1.76252C7.30937 1.29846 7.14531 0.85783 6.825 0.521893C6.6687 0.356148 6.48 0.224297 6.27061 0.134523C6.06123 0.0447482 5.83563 -0.00103397 5.60781 1.77164e-05C4.79531 1.77164e-05 4.07656 0.546893 3.86094 1.32971L2.52031 6.18595L2.51562 12.8735H9.89219C10.0375 12.8735 10.1766 12.8453 10.3062 12.7891C11.05 12.4719 11.5297 11.7453 11.5297 10.9391C11.5297 10.7422 11.5016 10.5485 11.4453 10.361C11.7078 10.0141 11.8531 9.58908 11.8531 9.14689C11.8531 8.95002 11.825 8.75627 11.7688 8.56877C12.0313 8.22189 12.1766 7.79689 12.1766 7.3547C12.1766 7.15783 12.1484 6.96408 12.0922 6.77658ZM11.0688 6.23439L10.7266 6.53127L10.9453 6.9297C11.0169 7.06044 11.054 7.20723 11.0531 7.35627C11.0531 7.61408 10.9422 7.85939 10.7469 8.02814L10.4047 8.32502L10.6219 8.72189C10.6934 8.85263 10.7305 8.99942 10.7297 9.14846C10.7297 9.40627 10.6187 9.65158 10.4234 9.82033L10.0813 10.1172L10.2984 10.5141C10.37 10.6448 10.4071 10.7916 10.4062 10.9406C10.4062 11.2906 10.2 11.6063 9.88125 11.75H3.64062V6.35627C3.93125 5.30627 4.36563 3.73127 4.94531 1.62971C4.98581 1.48556 5.07198 1.35845 5.19087 1.26745C5.30977 1.17645 5.45497 1.12647 5.60469 1.12502C5.72188 1.12346 5.83906 1.15939 5.93437 1.22971C6.08906 1.34533 6.17187 1.52033 6.1625 1.70627L6.0125 4.80627H10.925C11.2031 4.97658 11.375 5.26408 11.375 5.56252C11.375 5.82033 11.2641 6.06564 11.0688 6.23439Z" fill="#1890FF"/>
<path d="M16 12.375V6.68752C16 6.41095 16.2234 6.18752 16.5 6.18752H17.5156V12.875H16.5C16.2234 12.875 16 12.6516 16 12.375Z" fill="#1890FF"/>
<path d="M28.5 5.56252C28.5 6.0047 28.3547 6.4297 28.0922 6.77658C28.1484 6.96408 28.1766 7.15783 28.1766 7.3547C28.1766 7.79689 28.0312 8.22189 27.7688 8.56877C27.825 8.75627 27.8531 8.95002 27.8531 9.14689C27.8531 9.58908 27.7078 10.0141 27.4453 10.361C27.5016 10.5485 27.5297 10.7422 27.5297 10.9391C27.5297 11.7453 27.05 12.4719 26.3062 12.7891C26.1766 12.8453 26.0375 12.8735 25.8922 12.8735H18.5156L18.5203 6.18595L19.8609 1.32971C20.0766 0.546893 20.7953 1.77164e-05 21.6078 1.77164e-05C21.8356 -0.00103397 22.0612 0.0447482 22.2706 0.134523C22.48 0.224297 22.6687 0.356148 22.825 0.521893C23.1453 0.85783 23.3094 1.29846 23.2859 1.76252L23.1922 3.68283H26.9406C27.129 3.68265 27.3141 3.73282 27.4766 3.82814C28.1078 4.19533 28.5 4.86095 28.5 5.56252Z" fill="#1890FF"/>
</svg>
