<svg width="12" height="14" viewBox="0 0 12 14" fill="none" xmlns="http://www.w3.org/2000/svg">
<path d="M11.6438 8.55474L10.7483 7.78911C10.7907 7.52934 10.8126 7.26411 10.8126 6.99888C10.8126 6.73364 10.7907 6.46841 10.7483 6.20864L11.6438 5.44302C11.7114 5.38519 11.7597 5.30818 11.7824 5.22221C11.8051 5.13625 11.8011 5.04541 11.771 4.96177L11.7587 4.92622C11.5121 4.23719 11.143 3.59846 10.669 3.04087L10.6444 3.01216C10.5869 2.94455 10.5103 2.89595 10.4246 2.87277C10.339 2.84958 10.2483 2.8529 10.1645 2.88227L9.053 3.27739C8.64285 2.94106 8.18484 2.67583 7.68992 2.48989L7.47527 1.32778C7.45907 1.24034 7.41666 1.15989 7.35365 1.09713C7.29065 1.03437 7.21004 0.992269 7.12253 0.976414L7.08562 0.969579C6.37332 0.841063 5.6241 0.841063 4.91179 0.969579L4.87488 0.976414C4.78737 0.992269 4.70676 1.03437 4.64376 1.09713C4.58076 1.15989 4.53834 1.24034 4.52214 1.32778L4.30613 2.49536C3.81516 2.68134 3.35794 2.94643 2.95261 3.28013L1.83289 2.88227C1.74917 2.85266 1.65842 2.84923 1.5727 2.87243C1.48699 2.89563 1.41036 2.94436 1.353 3.01216L1.32839 3.04087C0.855001 3.59885 0.485901 4.23748 0.238746 4.92622L0.226442 4.96177C0.164918 5.13266 0.215504 5.32407 0.35359 5.44302L1.26004 6.21684C1.21765 6.47388 1.19714 6.73638 1.19714 6.99751C1.19714 7.26001 1.21765 7.52251 1.26004 7.77817L0.35359 8.552C0.286045 8.60982 0.237702 8.68684 0.21499 8.7728C0.192278 8.85877 0.196272 8.94961 0.226442 9.03325L0.238746 9.0688C0.486207 9.75786 0.852614 10.3936 1.32839 10.9542L1.353 10.9829C1.4105 11.0505 1.48713 11.0991 1.5728 11.1222C1.65846 11.1454 1.74914 11.1421 1.83289 11.1127L2.95261 10.7149C3.36004 11.0499 3.81531 11.3151 4.30613 11.4997L4.52214 12.6672C4.53834 12.7547 4.58076 12.8351 4.64376 12.8979C4.70676 12.9606 4.78737 13.0027 4.87488 13.0186L4.91179 13.0254C5.63064 13.1546 6.36677 13.1546 7.08562 13.0254L7.12253 13.0186C7.21004 13.0027 7.29065 12.9606 7.35365 12.8979C7.41666 12.8351 7.45907 12.7547 7.47527 12.6672L7.68992 11.5051C8.18464 11.3197 8.64523 11.0536 9.053 10.7176L10.1645 11.1127C10.2482 11.1424 10.339 11.1458 10.4247 11.1226C10.5104 11.0994 10.5871 11.0507 10.6444 10.9829L10.669 10.9542C11.1448 10.3922 11.5112 9.75786 11.7587 9.0688L11.771 9.03325C11.8325 8.86509 11.7819 8.67368 11.6438 8.55474V8.55474ZM9.77761 6.36997C9.81179 6.57641 9.82957 6.78833 9.82957 7.00024C9.82957 7.21216 9.81179 7.42407 9.77761 7.63052L9.68738 8.17876L10.7087 9.05239C10.5538 9.40908 10.3584 9.74672 10.1262 10.0586L8.8575 9.60884L8.4282 9.96157C8.10144 10.2295 7.73777 10.4401 7.34402 10.5877L6.82312 10.7833L6.57839 12.1094C6.19226 12.1532 5.80242 12.1532 5.41628 12.1094L5.17156 10.7805L4.65476 10.5823C4.26511 10.4346 3.90281 10.2241 3.57879 9.95747L3.14949 9.60337L1.87254 10.0573C1.64011 9.74419 1.44597 9.40649 1.29011 9.05102L2.32234 8.16919L2.23347 7.62231C2.20066 7.4186 2.18289 7.20806 2.18289 7.00024C2.18289 6.79106 2.19929 6.58188 2.23347 6.37817L2.32234 5.8313L1.29011 4.94946C1.44461 4.59263 1.64011 4.2563 1.87254 3.94321L3.14949 4.39712L3.57879 4.04302C3.90281 3.77641 4.26511 3.56587 4.65476 3.41821L5.17293 3.2227L5.41765 1.8938C5.80183 1.85005 6.19421 1.85005 6.57976 1.8938L6.82449 3.21997L7.34539 3.41548C7.73777 3.56313 8.10281 3.77368 8.42957 4.04165L8.85886 4.39438L10.1276 3.94458C10.36 4.25766 10.5542 4.59536 10.71 4.95083L9.68875 5.82446L9.77761 6.36997ZM6.00007 4.45727C4.67117 4.45727 3.59382 5.53462 3.59382 6.86352C3.59382 8.19243 4.67117 9.26977 6.00007 9.26977C7.32898 9.26977 8.40632 8.19243 8.40632 6.86352C8.40632 5.53462 7.32898 4.45727 6.00007 4.45727ZM7.08289 7.94634C6.94087 8.08877 6.77209 8.20171 6.58625 8.27867C6.40042 8.35563 6.20121 8.39509 6.00007 8.39477C5.59128 8.39477 5.20711 8.23481 4.91726 7.94634C4.77483 7.80432 4.66189 7.63554 4.58493 7.44971C4.50797 7.26387 4.46851 7.06466 4.46882 6.86352C4.46882 6.45474 4.62878 6.07056 4.91726 5.78071C5.20711 5.49087 5.59128 5.33227 6.00007 5.33227C6.40886 5.33227 6.79304 5.49087 7.08289 5.78071C7.22532 5.92273 7.33826 6.09151 7.41522 6.27734C7.49218 6.46317 7.53164 6.66239 7.53132 6.86352C7.53132 7.27231 7.37136 7.65649 7.08289 7.94634Z" fill="#8C8C8C"/>
</svg>
